<svg xmlns="http://www.w3.org/2000/svg" viewBox="0 0 144.46 127.62"><defs><style>.cls-1{fill:#6d7eb0;}</style></defs><title>home</title><g id="Livello_2" data-name="Livello 2"><g id="Livello_1-2" data-name="Livello 1"><path class="cls-1" d="M142.75,60.26h-18.5a1.16,1.16,0,0,0-1.16,1.16v64.48a1.73,1.73,0,0,1-1.73,1.73H87.95a1.73,1.73,0,0,1-1.73-1.73V81.4a.86.86,0,0,0-.86-.86H59.1a.86.86,0,0,0-.86.86v44.49a1.73,1.73,0,0,1-1.73,1.73H23.1a1.73,1.73,0,0,1-1.73-1.73V61.41a1.16,1.16,0,0,0-1.16-1.16H1.71a1.71,1.71,0,0,1-1.08-3L69.92.82a3.65,3.65,0,0,1,4.61,0l69.29,56.41A1.71,1.71,0,0,1,142.75,60.26Z"/></g></g></svg>