<svg xmlns="http://www.w3.org/2000/svg" viewBox="0 0 172.5 100.22"><defs><style>.cls-1{fill:#6d7eb0;}</style></defs><title>retweet</title><g id="Livello_2" data-name="Livello 2"><g id="Livello_1-2" data-name="Livello 1"><path class="cls-1" d="M170.48,67.89a6.69,6.69,0,0,1,0,9.58L149.83,98.12a6.52,6.52,0,0,1-9.58,0L119.6,77.47a6.69,6.69,0,0,1,0-9.58,6.34,6.34,0,0,1,9.28,0l9.58,9.58v-64h-59A6.91,6.91,0,0,1,72.9,6.58,6.64,6.64,0,0,1,79.49,0H145a6.64,6.64,0,0,1,6.58,6.58V77.47l9.58-9.58A6.34,6.34,0,0,1,170.48,67.89Z"/><path class="cls-1" d="M93,86.75a6.91,6.91,0,0,1,6.58,6.88A6.64,6.64,0,0,1,93,100.22H27.46a6.64,6.64,0,0,1-6.58-6.58V22.75L11.3,32.33a6.34,6.34,0,0,1-9.28,0,6.69,6.69,0,0,1,0-9.58l20.65-21A6.8,6.8,0,0,1,27.46,0a6.8,6.8,0,0,1,4.79,1.8l20.65,21a6.69,6.69,0,0,1,0,9.58,6.8,6.8,0,0,1-4.79,1.8,6.09,6.09,0,0,1-4.49-1.8L34,22.75v64Z"/></g></g></svg>